<mxfile host="Electron" modified="2025-06-29T01:13:08.673Z" agent="Mozilla/5.0 (Windows NT 10.0; Win64; x64) AppleWebKit/537.36 (KHTML, like Gecko) draw.io/24.2.5 Chrome/120.0.6099.109 Electron/28.1.0 Safari/537.36" etag="7UUvRaAcLI9kxpOQbM3T" version="24.2.5" type="device">
  <diagram name="Page-1" id="Hin5kD6wI5VzCOxchxd8">
    <mxGraphModel dx="1375" dy="1118" grid="1" gridSize="10" guides="1" tooltips="1" connect="1" arrows="1" fold="1" page="1" pageScale="1" pageWidth="1600" pageHeight="900" math="0" shadow="0">
      <root>
        <mxCell id="0" />
        <mxCell id="1" parent="0" />
        <mxCell id="0FLiPRjQ54ZrNttlAy67-9" style="edgeStyle=orthogonalEdgeStyle;rounded=0;orthogonalLoop=1;jettySize=auto;html=1;exitX=0.5;exitY=1;exitDx=0;exitDy=0;entryX=0.5;entryY=0;entryDx=0;entryDy=0;" edge="1" parent="1" source="0FLiPRjQ54ZrNttlAy67-1" target="0FLiPRjQ54ZrNttlAy67-2">
          <mxGeometry relative="1" as="geometry" />
        </mxCell>
        <mxCell id="0FLiPRjQ54ZrNttlAy67-17" style="edgeStyle=orthogonalEdgeStyle;rounded=0;orthogonalLoop=1;jettySize=auto;html=1;exitX=0.5;exitY=1;exitDx=0;exitDy=0;entryX=0.5;entryY=0;entryDx=0;entryDy=0;" edge="1" parent="1" source="0FLiPRjQ54ZrNttlAy67-1" target="0FLiPRjQ54ZrNttlAy67-11">
          <mxGeometry relative="1" as="geometry" />
        </mxCell>
        <mxCell id="0FLiPRjQ54ZrNttlAy67-32" style="edgeStyle=orthogonalEdgeStyle;rounded=0;orthogonalLoop=1;jettySize=auto;html=1;exitX=0.5;exitY=1;exitDx=0;exitDy=0;entryX=0.5;entryY=0;entryDx=0;entryDy=0;" edge="1" parent="1" source="0FLiPRjQ54ZrNttlAy67-1" target="0FLiPRjQ54ZrNttlAy67-19">
          <mxGeometry relative="1" as="geometry" />
        </mxCell>
        <mxCell id="0FLiPRjQ54ZrNttlAy67-40" style="edgeStyle=orthogonalEdgeStyle;rounded=0;orthogonalLoop=1;jettySize=auto;html=1;exitX=0.5;exitY=1;exitDx=0;exitDy=0;entryX=0.5;entryY=0;entryDx=0;entryDy=0;" edge="1" parent="1" source="0FLiPRjQ54ZrNttlAy67-1" target="0FLiPRjQ54ZrNttlAy67-26">
          <mxGeometry relative="1" as="geometry" />
        </mxCell>
        <mxCell id="0FLiPRjQ54ZrNttlAy67-41" style="edgeStyle=orthogonalEdgeStyle;rounded=0;orthogonalLoop=1;jettySize=auto;html=1;exitX=0.5;exitY=1;exitDx=0;exitDy=0;entryX=0.5;entryY=0;entryDx=0;entryDy=0;" edge="1" parent="1" source="0FLiPRjQ54ZrNttlAy67-1" target="0FLiPRjQ54ZrNttlAy67-34">
          <mxGeometry relative="1" as="geometry" />
        </mxCell>
        <mxCell id="0FLiPRjQ54ZrNttlAy67-1" value="&lt;font style=&quot;font-size: 12px;&quot;&gt;&lt;b&gt;Need:&lt;/b&gt;&amp;nbsp;&lt;span style=&quot;text-align: left; white-space-collapse: preserve;&quot;&gt;&lt;font style=&quot;font-size: 12px;&quot; face=&quot;Helvetica&quot;&gt;Multiple microcontrollers need to be able to be programmed through an ethernet connection from a central computer and share data within a DDS network with software application running on the central computer.&lt;/font&gt;&lt;/span&gt;&lt;/font&gt;" style="rounded=0;whiteSpace=wrap;html=1;" vertex="1" parent="1">
          <mxGeometry x="160" y="160" width="1280" height="40" as="geometry" />
        </mxCell>
        <mxCell id="0FLiPRjQ54ZrNttlAy67-6" style="edgeStyle=orthogonalEdgeStyle;rounded=0;orthogonalLoop=1;jettySize=auto;html=1;exitX=0.044;exitY=1.006;exitDx=0;exitDy=0;entryX=0;entryY=0.5;entryDx=0;entryDy=0;exitPerimeter=0;" edge="1" parent="1" source="0FLiPRjQ54ZrNttlAy67-2" target="0FLiPRjQ54ZrNttlAy67-4">
          <mxGeometry relative="1" as="geometry">
            <Array as="points">
              <mxPoint x="170" y="325" />
            </Array>
          </mxGeometry>
        </mxCell>
        <mxCell id="0FLiPRjQ54ZrNttlAy67-2" value="&lt;b&gt;Goal 1: &lt;/b&gt;The central computer shall upload an application that enables over-the-air (OTA) programming" style="rounded=0;whiteSpace=wrap;html=1;" vertex="1" parent="1">
          <mxGeometry x="160" y="240" width="240" height="50" as="geometry" />
        </mxCell>
        <mxCell id="0FLiPRjQ54ZrNttlAy67-3" value="&lt;b&gt;Objective 1.2: &lt;/b&gt;The central computer shall connect to a microcontroller outside of the LAN connection" style="rounded=0;whiteSpace=wrap;html=1;" vertex="1" parent="1">
          <mxGeometry x="190" y="360" width="210" height="50" as="geometry" />
        </mxCell>
        <mxCell id="0FLiPRjQ54ZrNttlAy67-4" value="&lt;b&gt;Objective 1.1: &lt;/b&gt;The central computer shall have an application in the workspace for enabling OTA" style="rounded=0;whiteSpace=wrap;html=1;" vertex="1" parent="1">
          <mxGeometry x="190" y="300" width="210" height="50" as="geometry" />
        </mxCell>
        <mxCell id="0FLiPRjQ54ZrNttlAy67-5" value="&lt;b&gt;Objective 1.3: &lt;/b&gt;The central computer shall upload the application to a microcontroller without the LAN" style="rounded=0;whiteSpace=wrap;html=1;" vertex="1" parent="1">
          <mxGeometry x="190" y="420" width="210" height="50" as="geometry" />
        </mxCell>
        <mxCell id="0FLiPRjQ54ZrNttlAy67-7" style="edgeStyle=orthogonalEdgeStyle;rounded=0;orthogonalLoop=1;jettySize=auto;html=1;exitX=0.043;exitY=1;exitDx=0;exitDy=0;entryX=0;entryY=0.5;entryDx=0;entryDy=0;exitPerimeter=0;" edge="1" parent="1" source="0FLiPRjQ54ZrNttlAy67-2" target="0FLiPRjQ54ZrNttlAy67-3">
          <mxGeometry relative="1" as="geometry">
            <mxPoint x="190" y="300" as="sourcePoint" />
            <mxPoint x="210" y="335" as="targetPoint" />
          </mxGeometry>
        </mxCell>
        <mxCell id="0FLiPRjQ54ZrNttlAy67-8" style="edgeStyle=orthogonalEdgeStyle;rounded=0;orthogonalLoop=1;jettySize=auto;html=1;exitX=0.042;exitY=1.003;exitDx=0;exitDy=0;entryX=0;entryY=0.5;entryDx=0;entryDy=0;exitPerimeter=0;" edge="1" parent="1" source="0FLiPRjQ54ZrNttlAy67-2" target="0FLiPRjQ54ZrNttlAy67-5">
          <mxGeometry relative="1" as="geometry">
            <mxPoint x="190" y="300" as="sourcePoint" />
            <mxPoint x="210" y="395" as="targetPoint" />
          </mxGeometry>
        </mxCell>
        <mxCell id="0FLiPRjQ54ZrNttlAy67-10" style="edgeStyle=orthogonalEdgeStyle;rounded=0;orthogonalLoop=1;jettySize=auto;html=1;exitX=0.044;exitY=1.006;exitDx=0;exitDy=0;entryX=0;entryY=0.5;entryDx=0;entryDy=0;exitPerimeter=0;" edge="1" parent="1" source="0FLiPRjQ54ZrNttlAy67-11" target="0FLiPRjQ54ZrNttlAy67-13">
          <mxGeometry relative="1" as="geometry">
            <Array as="points">
              <mxPoint x="430" y="325" />
            </Array>
          </mxGeometry>
        </mxCell>
        <mxCell id="0FLiPRjQ54ZrNttlAy67-11" value="&lt;b&gt;Goal 2: &lt;/b&gt;The central computer shall upload an application to different microcontrollers OTA" style="rounded=0;whiteSpace=wrap;html=1;" vertex="1" parent="1">
          <mxGeometry x="420" y="240" width="240" height="50" as="geometry" />
        </mxCell>
        <mxCell id="0FLiPRjQ54ZrNttlAy67-12" value="&lt;b&gt;Objective 2.2: &lt;/b&gt;The central computer shall connect to a microcontroller through the LAN connection" style="rounded=0;whiteSpace=wrap;html=1;" vertex="1" parent="1">
          <mxGeometry x="450" y="360" width="210" height="50" as="geometry" />
        </mxCell>
        <mxCell id="0FLiPRjQ54ZrNttlAy67-13" value="&lt;b&gt;Objective 2.1: &lt;/b&gt;The central computer shall have an application in the workspace that tests OTA functionality" style="rounded=0;whiteSpace=wrap;html=1;" vertex="1" parent="1">
          <mxGeometry x="450" y="300" width="210" height="50" as="geometry" />
        </mxCell>
        <mxCell id="0FLiPRjQ54ZrNttlAy67-14" value="&lt;b&gt;Objective 2.3: &lt;/b&gt;The central computer shall upload the application to a microcontroller through the LAN" style="rounded=0;whiteSpace=wrap;html=1;" vertex="1" parent="1">
          <mxGeometry x="450" y="420" width="210" height="50" as="geometry" />
        </mxCell>
        <mxCell id="0FLiPRjQ54ZrNttlAy67-15" style="edgeStyle=orthogonalEdgeStyle;rounded=0;orthogonalLoop=1;jettySize=auto;html=1;exitX=0.043;exitY=1;exitDx=0;exitDy=0;entryX=0;entryY=0.5;entryDx=0;entryDy=0;exitPerimeter=0;" edge="1" parent="1" source="0FLiPRjQ54ZrNttlAy67-11" target="0FLiPRjQ54ZrNttlAy67-12">
          <mxGeometry relative="1" as="geometry">
            <mxPoint x="450" y="300" as="sourcePoint" />
            <mxPoint x="470" y="335" as="targetPoint" />
          </mxGeometry>
        </mxCell>
        <mxCell id="0FLiPRjQ54ZrNttlAy67-16" style="edgeStyle=orthogonalEdgeStyle;rounded=0;orthogonalLoop=1;jettySize=auto;html=1;exitX=0.042;exitY=1.003;exitDx=0;exitDy=0;entryX=0;entryY=0.5;entryDx=0;entryDy=0;exitPerimeter=0;" edge="1" parent="1" source="0FLiPRjQ54ZrNttlAy67-11" target="0FLiPRjQ54ZrNttlAy67-14">
          <mxGeometry relative="1" as="geometry">
            <mxPoint x="450" y="300" as="sourcePoint" />
            <mxPoint x="470" y="395" as="targetPoint" />
          </mxGeometry>
        </mxCell>
        <mxCell id="0FLiPRjQ54ZrNttlAy67-18" style="edgeStyle=orthogonalEdgeStyle;rounded=0;orthogonalLoop=1;jettySize=auto;html=1;exitX=0.044;exitY=1.006;exitDx=0;exitDy=0;entryX=0;entryY=0.5;entryDx=0;entryDy=0;exitPerimeter=0;" edge="1" parent="1" source="0FLiPRjQ54ZrNttlAy67-19" target="0FLiPRjQ54ZrNttlAy67-21">
          <mxGeometry relative="1" as="geometry">
            <Array as="points">
              <mxPoint x="690" y="325" />
            </Array>
          </mxGeometry>
        </mxCell>
        <mxCell id="0FLiPRjQ54ZrNttlAy67-19" value="&lt;b&gt;Goal 3: &lt;/b&gt;The microcontroller shall be able to interface with the main ROS2 application stack natively" style="rounded=0;whiteSpace=wrap;html=1;" vertex="1" parent="1">
          <mxGeometry x="680" y="240" width="240" height="50" as="geometry" />
        </mxCell>
        <mxCell id="0FLiPRjQ54ZrNttlAy67-20" value="&lt;b&gt;Objective 3.2: &lt;/b&gt;The microcontroller needs to be able to subscribe to topics within the ROS2 stack" style="rounded=0;whiteSpace=wrap;html=1;" vertex="1" parent="1">
          <mxGeometry x="710" y="360" width="210" height="50" as="geometry" />
        </mxCell>
        <mxCell id="0FLiPRjQ54ZrNttlAy67-21" value="&lt;b&gt;Objective 3.1: &lt;/b&gt;The microcontroller needs to be able to communicate with the ROS2 stack" style="rounded=0;whiteSpace=wrap;html=1;" vertex="1" parent="1">
          <mxGeometry x="710" y="300" width="210" height="50" as="geometry" />
        </mxCell>
        <mxCell id="0FLiPRjQ54ZrNttlAy67-22" value="&lt;b&gt;Objective 3.3: &lt;/b&gt;The microcontroller needs to be able to publish to topics within the ROS2 stack" style="rounded=0;whiteSpace=wrap;html=1;" vertex="1" parent="1">
          <mxGeometry x="710" y="420" width="210" height="50" as="geometry" />
        </mxCell>
        <mxCell id="0FLiPRjQ54ZrNttlAy67-23" style="edgeStyle=orthogonalEdgeStyle;rounded=0;orthogonalLoop=1;jettySize=auto;html=1;exitX=0.043;exitY=1;exitDx=0;exitDy=0;entryX=0;entryY=0.5;entryDx=0;entryDy=0;exitPerimeter=0;" edge="1" parent="1" source="0FLiPRjQ54ZrNttlAy67-19" target="0FLiPRjQ54ZrNttlAy67-20">
          <mxGeometry relative="1" as="geometry">
            <mxPoint x="710" y="300" as="sourcePoint" />
            <mxPoint x="730" y="335" as="targetPoint" />
          </mxGeometry>
        </mxCell>
        <mxCell id="0FLiPRjQ54ZrNttlAy67-24" style="edgeStyle=orthogonalEdgeStyle;rounded=0;orthogonalLoop=1;jettySize=auto;html=1;exitX=0.042;exitY=1.003;exitDx=0;exitDy=0;entryX=0;entryY=0.5;entryDx=0;entryDy=0;exitPerimeter=0;" edge="1" parent="1" source="0FLiPRjQ54ZrNttlAy67-19" target="0FLiPRjQ54ZrNttlAy67-22">
          <mxGeometry relative="1" as="geometry">
            <mxPoint x="710" y="300" as="sourcePoint" />
            <mxPoint x="730" y="395" as="targetPoint" />
          </mxGeometry>
        </mxCell>
        <mxCell id="0FLiPRjQ54ZrNttlAy67-25" style="edgeStyle=orthogonalEdgeStyle;rounded=0;orthogonalLoop=1;jettySize=auto;html=1;exitX=0.044;exitY=1.006;exitDx=0;exitDy=0;entryX=0;entryY=0.5;entryDx=0;entryDy=0;exitPerimeter=0;" edge="1" parent="1" source="0FLiPRjQ54ZrNttlAy67-26" target="0FLiPRjQ54ZrNttlAy67-28">
          <mxGeometry relative="1" as="geometry">
            <Array as="points">
              <mxPoint x="950" y="325" />
            </Array>
          </mxGeometry>
        </mxCell>
        <mxCell id="0FLiPRjQ54ZrNttlAy67-26" value="&lt;b&gt;Goal 4: &lt;/b&gt;The central computer must be able program the different microcontrollers with applications OTA with a single command" style="rounded=0;whiteSpace=wrap;html=1;" vertex="1" parent="1">
          <mxGeometry x="940" y="240" width="240" height="50" as="geometry" />
        </mxCell>
        <mxCell id="0FLiPRjQ54ZrNttlAy67-27" value="&lt;b&gt;Objective 4.2: &lt;/b&gt;The central computer must be able to program each microcontroller OTA" style="rounded=0;whiteSpace=wrap;html=1;" vertex="1" parent="1">
          <mxGeometry x="970" y="360" width="210" height="50" as="geometry" />
        </mxCell>
        <mxCell id="0FLiPRjQ54ZrNttlAy67-28" value="&lt;b&gt;Objective 4.1: &lt;/b&gt;The central computer must be able to compile different programming environments" style="rounded=0;whiteSpace=wrap;html=1;" vertex="1" parent="1">
          <mxGeometry x="970" y="300" width="210" height="50" as="geometry" />
        </mxCell>
        <mxCell id="0FLiPRjQ54ZrNttlAy67-30" style="edgeStyle=orthogonalEdgeStyle;rounded=0;orthogonalLoop=1;jettySize=auto;html=1;exitX=0.043;exitY=1;exitDx=0;exitDy=0;entryX=0;entryY=0.5;entryDx=0;entryDy=0;exitPerimeter=0;" edge="1" parent="1" source="0FLiPRjQ54ZrNttlAy67-26" target="0FLiPRjQ54ZrNttlAy67-27">
          <mxGeometry relative="1" as="geometry">
            <mxPoint x="970" y="300" as="sourcePoint" />
            <mxPoint x="990" y="335" as="targetPoint" />
          </mxGeometry>
        </mxCell>
        <mxCell id="0FLiPRjQ54ZrNttlAy67-33" style="edgeStyle=orthogonalEdgeStyle;rounded=0;orthogonalLoop=1;jettySize=auto;html=1;exitX=0.044;exitY=1.006;exitDx=0;exitDy=0;entryX=0;entryY=0.5;entryDx=0;entryDy=0;exitPerimeter=0;" edge="1" parent="1" source="0FLiPRjQ54ZrNttlAy67-34" target="0FLiPRjQ54ZrNttlAy67-36">
          <mxGeometry relative="1" as="geometry">
            <Array as="points">
              <mxPoint x="1210" y="325" />
            </Array>
          </mxGeometry>
        </mxCell>
        <mxCell id="0FLiPRjQ54ZrNttlAy67-34" value="&lt;b&gt;Goal 5: &lt;/b&gt;The system shall be able to be tested for interoperability by a single ROS2 launch file" style="rounded=0;whiteSpace=wrap;html=1;" vertex="1" parent="1">
          <mxGeometry x="1200" y="240" width="240" height="50" as="geometry" />
        </mxCell>
        <mxCell id="0FLiPRjQ54ZrNttlAy67-35" value="&lt;b&gt;Objective 5.2: &lt;/b&gt;The launch file shall create a publisher node to a topic and print out its published message" style="rounded=0;whiteSpace=wrap;html=1;" vertex="1" parent="1">
          <mxGeometry x="1230" y="360" width="210" height="50" as="geometry" />
        </mxCell>
        <mxCell id="0FLiPRjQ54ZrNttlAy67-36" value="&lt;b&gt;Objective 5.1: &lt;/b&gt;The ROS2 launch file shall bring up the micro-ROS agent and connect to the microcontrollers" style="rounded=0;whiteSpace=wrap;html=1;" vertex="1" parent="1">
          <mxGeometry x="1230" y="300" width="210" height="50" as="geometry" />
        </mxCell>
        <mxCell id="0FLiPRjQ54ZrNttlAy67-37" value="&lt;b&gt;Objective 5.3: &lt;/b&gt;The launch file shall create a subscriber node to a topic and print out any messages it receives" style="rounded=0;whiteSpace=wrap;html=1;" vertex="1" parent="1">
          <mxGeometry x="1230" y="420" width="210" height="50" as="geometry" />
        </mxCell>
        <mxCell id="0FLiPRjQ54ZrNttlAy67-38" style="edgeStyle=orthogonalEdgeStyle;rounded=0;orthogonalLoop=1;jettySize=auto;html=1;exitX=0.043;exitY=1;exitDx=0;exitDy=0;entryX=0;entryY=0.5;entryDx=0;entryDy=0;exitPerimeter=0;" edge="1" parent="1" source="0FLiPRjQ54ZrNttlAy67-34" target="0FLiPRjQ54ZrNttlAy67-35">
          <mxGeometry relative="1" as="geometry">
            <mxPoint x="1230" y="300" as="sourcePoint" />
            <mxPoint x="1250" y="335" as="targetPoint" />
          </mxGeometry>
        </mxCell>
        <mxCell id="0FLiPRjQ54ZrNttlAy67-39" style="edgeStyle=orthogonalEdgeStyle;rounded=0;orthogonalLoop=1;jettySize=auto;html=1;exitX=0.042;exitY=1.003;exitDx=0;exitDy=0;entryX=0;entryY=0.5;entryDx=0;entryDy=0;exitPerimeter=0;" edge="1" parent="1" source="0FLiPRjQ54ZrNttlAy67-34" target="0FLiPRjQ54ZrNttlAy67-37">
          <mxGeometry relative="1" as="geometry">
            <mxPoint x="1230" y="300" as="sourcePoint" />
            <mxPoint x="1250" y="395" as="targetPoint" />
          </mxGeometry>
        </mxCell>
      </root>
    </mxGraphModel>
  </diagram>
</mxfile>
